<?xml version="1.0" standalone="no"?>
<!DOCTYPE svg PUBLIC "-//W3C//DTD SVG 20010904//EN"
 "http://www.w3.org/TR/2001/REC-SVG-20010904/DTD/svg10.dtd">
<svg version="1.0" xmlns="http://www.w3.org/2000/svg"
 width="2400.000000pt" height="2400.000000pt" viewBox="0 0 2400.000000 2400.000000"
 preserveAspectRatio="xMidYMid meet">
<metadata>
Created by potrace 1.14, written by Peter Selinger 2001-2017
</metadata>
<g transform="translate(0.000000,2400.000000) scale(0.100000,-0.100000)"
fill="#000000" stroke="none">
<path d="M13408 14054 c-2 -1 -34 -5 -73 -9 -241 -24 -448 -126 -552 -272 -93
-131 -132 -285 -136 -543 l-2 -155 -282 0 -281 0 0 -207 c-1 -153 3 -208 11
-209 7 -1 22 -1 35 -2 23 0 25 -4 25 -69 0 -21 5 -38 11 -39 6 -1 112 -2 236
-3 124 -2 230 -4 236 -4 9 -2 11 -215 10 -827 l-1 -825 25 -1 c14 -1 31 -1 38
0 8 1 12 -15 12 -54 0 -45 3 -55 18 -56 98 -4 634 0 639 4 3 4 6 402 6 885 l0
878 334 -1 c184 0 337 3 340 8 3 6 7 336 4 398 -1 13 -9 16 -36 13 l-34 -3 -3
57 -3 56 -300 0 -300 1 -1 30 c-1 55 23 169 46 223 43 101 147 166 305 191 58
10 387 7 453 -3 28 -4 32 -2 33 17 5 116 2 366 -4 380 -6 12 -17 17 -35 15
-26 -3 -27 -1 -32 52 -5 49 -7 54 -30 56 -14 1 -65 5 -115 9 -86 7 -592 15
-597 9z"/>
<path d="M17653 14032 c-70 -2 -83 -5 -84 -20 0 -9 -1 -486 -1 -1060 -1 -957
-2 -1043 -17 -1036 -9 4 -59 16 -111 28 l-95 20 45 12 c25 7 58 15 74 19 45
10 15 29 -79 50 -167 36 -178 40 -181 59 -9 60 -38 179 -56 226 -26 70 -81
184 -90 188 -5 2 -8 7 -8 12 0 20 -140 211 -195 265 -86 86 -112 106 -206 162
-108 63 -244 120 -332 138 -10 2 -27 7 -37 10 -10 3 -29 8 -42 10 -106 21
-141 26 -193 31 -106 9 -97 -1 -128 141 -16 70 -39 180 -53 243 -13 63 -28
125 -34 138 -11 25 -27 21 -39 -10 -5 -15 -11 -1 -20 51 -11 63 -24 91 -36 79
-3 -2 -16 -58 -31 -124 -14 -65 -27 -126 -29 -134 -2 -8 -20 -91 -40 -185 -21
-93 -40 -173 -44 -176 -3 -4 -44 -9 -89 -13 -249 -19 -443 -68 -627 -157 -199
-97 -348 -239 -447 -424 -47 -89 -99 -251 -112 -352 -13 -94 -18 -128 -19
-129 -3 -1 -205 -44 -237 -50 -14 -3 -43 -10 -65 -15 -37 -10 -38 -12 -20 -25
10 -8 26 -14 34 -15 9 0 23 -2 31 -5 8 -2 44 -10 80 -17 60 -13 62 -14 35 -21
-96 -25 -119 -32 -122 -43 -4 -11 36 -26 92 -36 11 -2 57 -12 103 -22 81 -18
82 -18 83 -49 0 -17 2 -38 4 -46 2 -8 8 -37 14 -65 5 -27 21 -85 35 -128 76
-230 275 -497 461 -618 56 -36 190 -108 215 -114 3 -1 50 -15 105 -33 99 -31
218 -57 305 -66 25 -3 74 -9 110 -12 36 -4 68 -12 72 -18 6 -9 26 -92 42 -171
21 -106 58 -251 66 -259 5 -5 12 2 16 20 6 25 9 20 24 -45 31 -129 42 -120 84
64 13 61 36 160 50 220 14 61 28 127 32 148 6 33 9 37 38 38 142 3 451 64 551
109 132 59 169 79 225 115 211 138 357 347 419 600 18 74 22 100 36 224 3 25
7 46 9 48 4 4 238 59 291 69 16 3 34 9 41 14 8 7 11 -119 11 -491 1 -376 4
-503 13 -509 6 -4 22 -6 36 -4 23 2 24 -1 24 -52 0 -44 3 -54 18 -55 86 -4
635 0 639 5 8 7 7 3121 0 3133 -4 6 -20 9 -37 7 l-30 -4 0 55 0 54 -247 3
c-137 2 -285 2 -330 0z m-1541 -1332 c148 -40 312 -168 363 -285 28 -62 59
-164 52 -171 -2 -3 -47 5 -98 17 -129 29 -218 48 -254 55 -16 3 -35 10 -42 17
-6 7 -21 59 -33 117 -11 58 -25 121 -31 141 -22 86 -27 130 -13 125 7 -3 32
-10 56 -16z m-658 -171 c-20 -90 -36 -170 -37 -176 0 -7 -1 -13 -2 -13 -1 0
-53 -11 -116 -25 -63 -14 -125 -28 -139 -30 -14 -3 -51 -11 -82 -19 -32 -7
-58 -11 -58 -9 0 3 16 37 36 76 56 113 124 193 227 270 45 34 201 108 205 98
1 -4 -14 -81 -34 -172z m-225 -904 c113 -25 205 -46 207 -48 1 -1 7 -24 13
-52 6 -27 14 -59 16 -70 3 -11 7 -29 9 -40 4 -17 28 -126 52 -236 l6 -27 -53
13 c-201 49 -376 170 -434 300 -23 53 -65 186 -65 207 0 5 10 6 23 3 12 -3
114 -25 226 -50z m1231 -76 c-22 -45 -47 -88 -55 -96 -8 -8 -15 -18 -15 -21 0
-8 -89 -98 -135 -137 -27 -23 -186 -108 -191 -102 -1 1 4 25 11 54 8 29 16 67
19 85 15 84 55 231 64 237 6 4 40 13 74 20 35 8 108 24 163 36 55 12 101 18
103 14 2 -5 -15 -45 -38 -90z"/>
<path d="M19113 14032 l-292 -2 0 -265 -1 -265 38 0 38 0 -1 -55 -1 -55 366 0
366 0 -1 267 0 268 -36 -1 -36 0 1 50 1 51 -75 5 c-41 3 -206 4 -367 2z"/>
<path d="M10645 13664 c-132 -41 -277 -86 -323 -100 l-83 -25 1 -162 c0 -89 1
-194 0 -232 l0 -71 -287 1 c-159 0 -296 -1 -305 -3 -16 -4 -18 -22 -18 -207 0
-214 0 -214 48 -210 23 2 26 -6 24 -71 -1 -22 4 -33 16 -36 9 -2 131 -3 270
-3 l252 1 0 -145 c0 -385 8 -1019 13 -1041 4 -14 12 -47 18 -75 7 -27 21 -70
32 -95 29 -64 125 -208 172 -257 88 -93 233 -153 440 -181 67 -9 457 -9 570 0
107 9 200 19 223 23 9 2 20 4 23 4 4 1 7 94 7 207 l0 206 -37 -6 -37 -6 1 58
c0 65 4 63 -105 48 -118 -17 -338 -23 -409 -12 -54 8 -142 57 -152 84 -19 51
-23 146 -23 657 l-1 530 370 1 c204 1 379 2 390 3 20 1 20 7 20 209 -1 207 -1
207 -23 208 -53 3 -52 2 -49 45 2 23 -2 46 -8 53 -8 8 -109 11 -353 11 -229
-1 -342 3 -343 10 -1 5 -3 125 -4 265 -1 140 -3 261 -4 268 -1 13 -14 11 -58
-5 -9 -4 -12 12 -10 61 2 41 -1 66 -8 65 -5 -1 -118 -35 -250 -75z"/>
<path d="M2415 13144 c-238 -28 -448 -116 -587 -246 -27 -25 -49 -40 -50 -34
0 6 -2 16 -3 21 -2 6 -3 27 -4 47 -1 36 -3 37 -31 34 -37 -4 -38 -2 -41 57 -2
34 -7 47 -18 48 -9 1 -152 2 -318 3 l-302 1 7 -170 c3 -93 6 -774 7 -1512 l0
-1343 38 0 37 0 0 -54 0 -54 330 0 330 1 0 571 0 571 61 -67 c190 -212 475
-321 839 -322 326 -1 652 119 858 318 161 155 258 352 307 627 14 79 22 324
12 389 -3 14 -8 50 -12 80 -15 114 -75 289 -135 389 -192 326 -364 481 -643
580 -93 32 -94 33 -227 57 -111 20 -317 23 -455 8z m255 -533 c136 -37 222
-86 314 -177 57 -57 91 -125 122 -244 19 -73 22 -105 19 -230 -2 -129 -6 -155
-33 -237 -84 -260 -270 -435 -517 -487 -164 -34 -359 1 -504 92 -170 107 -248
263 -257 517 -13 384 209 695 551 770 66 14 247 12 305 -4z"/>
<path d="M5497 13154 c-1 -1 -45 -4 -97 -7 -52 -4 -104 -8 -115 -11 -11 -2
-45 -7 -75 -11 -270 -34 -546 -161 -712 -327 -202 -202 -302 -472 -302 -818 0
-281 57 -480 196 -695 124 -191 216 -285 366 -377 130 -80 367 -161 537 -184
28 -3 59 -8 69 -10 113 -21 542 -21 661 0 11 2 45 8 75 12 30 4 57 9 60 9 43
12 59 15 81 19 48 8 237 75 301 107 219 110 383 278 474 488 114 264 132 626
44 926 -66 228 -279 524 -463 642 -192 125 -433 201 -722 229 -63 6 -372 13
-378 8z m358 -537 c72 -11 244 -74 265 -97 3 -3 23 -18 45 -35 86 -63 125
-126 159 -255 30 -117 37 -242 22 -389 -25 -230 -151 -429 -336 -528 -54 -29
-135 -60 -182 -68 -12 -3 -43 -8 -68 -13 -51 -9 -232 -8 -298 2 -183 29 -369
141 -427 257 -96 189 -103 505 -16 722 73 183 206 311 386 372 28 9 61 19 74
21 13 3 40 8 60 13 37 8 262 7 316 -2z"/>
<path d="M21317 13154 c-1 -1 -45 -4 -97 -8 -52 -3 -104 -8 -116 -10 -12 -2
-45 -7 -75 -11 -30 -4 -57 -9 -60 -11 -3 -2 -21 -6 -40 -9 -80 -14 -287 -85
-339 -116 -8 -5 -22 -12 -30 -16 -64 -27 -199 -131 -264 -202 -17 -19 -36 -39
-42 -45 -33 -34 -100 -146 -133 -223 -71 -164 -96 -297 -96 -518 0 -298 48
-476 186 -691 182 -285 357 -419 674 -518 291 -91 770 -106 1120 -34 515 105
820 392 912 857 18 93 25 393 10 486 -31 202 -86 340 -208 521 -79 118 -155
203 -236 265 -32 24 -60 47 -63 51 -3 3 -49 29 -103 57 -137 70 -329 130 -472
147 -22 3 -47 7 -55 9 -40 11 -462 28 -473 19z m418 -548 c165 -42 331 -157
375 -260 44 -103 62 -196 66 -331 3 -145 -5 -219 -36 -315 -25 -77 -73 -178
-97 -205 -10 -11 -28 -32 -40 -48 -51 -66 -174 -147 -273 -181 -159 -53 -379
-56 -555 -5 -123 35 -271 142 -315 229 -27 52 -57 154 -68 225 -12 86 -6 295
12 370 21 93 21 93 46 149 91 202 246 325 474 375 106 24 311 22 411 -3z"/>
<path d="M8678 13109 c-218 -30 -391 -128 -488 -277 l-28 -43 -5 28 c-3 15 -6
53 -7 83 -1 56 -10 71 -41 65 -24 -5 -29 5 -34 57 -2 24 -4 45 -4 48 -1 3
-143 5 -316 5 l-315 0 7 -180 c4 -99 7 -591 7 -1092 1 -804 3 -913 16 -914 8
-1 25 -1 38 -2 21 0 23 -4 21 -48 -2 -27 1 -52 4 -56 7 -7 646 -8 653 -1 2 2
4 236 5 519 1 494 2 518 24 624 37 181 88 282 191 381 72 69 208 138 315 159
106 22 160 27 288 26 121 0 192 -4 274 -16 26 -4 37 -2 38 7 0 7 1 118 2 246
l2 233 -37 10 c-37 9 -38 11 -38 54 0 24 -3 46 -8 49 -4 2 -28 7 -52 11 -25 3
-52 8 -60 10 -63 16 -365 26 -452 14z"/>
<path d="M18857 13065 c-1 -5 -2 -498 -2 -1095 l1 -1085 37 2 37 3 0 -55 0
-55 33 -1 c38 -1 596 -1 615 0 9 1 12 227 12 1094 l0 1093 -35 -1 -35 -2 -1
46 c-1 25 -1 49 0 54 1 10 23 9 -336 11 -208 0 -324 -3 -326 -9z"/>
</g>
</svg>
